<svg width="24" height="23" viewBox="0 0 24 23" fill="none" xmlns="http://www.w3.org/2000/svg">
<path d="M10.2347 8.37864L8.70534 6.88655C9.1759 6.19789 9.41117 5.39446 9.41117 4.59103C9.41117 2.06596 7.29366 0 4.70559 0C2.11751 0 0 2.06596 0 4.59103C0 7.1161 2.11751 9.18207 4.70559 9.18207C5.52906 9.18207 6.35254 8.95251 7.05838 8.49341L8.5877 9.9855C8.82298 10.215 9.52881 10.6742 10.2347 9.9855C10.7052 9.52639 10.7052 8.83774 10.2347 8.37864ZM4.70559 6.88655C3.41155 6.88655 2.35279 5.85357 2.35279 4.59103C2.35279 3.3285 3.41155 2.29552 4.70559 2.29552C5.99962 2.29552 7.05838 3.3285 7.05838 4.59103C7.05838 5.85357 5.99962 6.88655 4.70559 6.88655Z" transform="translate(12.9403 12.6254)" fill="#0286bf"/>
<path d="M17.646 0H1.1764C0.470559 0 0 0.459103 0 1.14776V21.8074C0 22.4961 0.470559 22.9552 1.1764 22.9552H13.7638C11.8816 21.6926 10.5876 19.6267 10.5876 17.2164C10.5876 13.4288 13.7638 10.3298 17.646 10.3298C17.9989 10.3298 18.4694 10.3298 18.8223 10.4446V1.14776C18.8223 0.459103 18.3518 0 17.646 0ZM9.41117 9.18207H3.52919C2.82335 9.18207 2.35279 8.60819 2.35279 8.03431C2.35279 7.34565 2.82335 6.88655 3.52919 6.88655H9.41117C10.117 6.88655 10.5876 7.34565 10.5876 8.03431C10.5876 8.60819 10.117 9.18207 9.41117 9.18207ZM15.2932 4.59103H3.52919C2.82335 4.59103 2.35279 4.01715 2.35279 3.44327C2.35279 2.75462 2.82335 2.29552 3.52919 2.29552H15.2932C15.999 2.29552 16.4696 2.75462 16.4696 3.44327C16.4696 4.01715 15.999 4.59103 15.2932 4.59103Z" fill="#0286bf"/>
</svg>
