<svg xmlns="http://www.w3.org/2000/svg" width="85" height="15" viewBox="0 0 85 15">
    <g fill="#FF1628" fill-rule="evenodd">
        <path d="M19.908 5.016c-.467.532-.701 1.18-.701 1.977 0 .797.234 1.445.7 2.007.468.56 1.081.825 1.84.825 1.226 0 2.395-.944 3.475-2.832-1.08-1.83-2.219-2.744-3.416-2.744-.76 0-1.372.265-1.898.767M35.15 8.97c.467-.502.7-1.151.7-1.977 0-.827-.233-1.505-.7-2.036-.467-.531-1.08-.797-1.84-.797-.671 0-1.284.207-1.84.679-.554.472-1.08 1.151-1.605 2.095 1.05 1.859 2.19 2.773 3.387 2.773.788 0 1.402-.265 1.898-.737M16.93 2.007C18.126.737 19.704.088 21.6.088c2.278 0 4.293 1.181 5.986 3.512C29.135 1.21 31.12 0 33.515 0c1.898 0 3.474.65 4.7 1.977 1.227 1.327 1.84 2.98 1.84 4.957 0 2.124-.613 3.806-1.84 5.075-1.226 1.268-2.802 1.889-4.73 1.889-1.08 0-2.13-.325-3.124-.974-1.022-.62-1.898-1.475-2.715-2.538-1.665 2.42-3.708 3.63-6.103 3.63-1.84 0-3.387-.68-4.613-2.037-1.256-1.357-1.87-3.01-1.87-4.956 0-2.095.585-3.777 1.87-5.016M7.372 10.496H4.091V8.775h3.281c.587 0 .952.384.952.87 0 .507-.365.851-.952.851zm-.12-5.124H4.09v-1.58h3.16c.425 0 .81.304.81.77 0 .486-.385.81-.81.81zm1.235 8.527c2.713 0 3.989-1.783 3.989-3.666 0-1.742-1.113-3.079-2.572-3.302 1.316-.283 2.309-1.417 2.309-3.098 0-1.58-1.216-3.443-4.01-3.443H0v13.509h8.487zM49.193 14.142c3.625 0 5.833-1.722 5.833-4.7 0-5.022-7.514-3.928-7.514-5.204 0-.344.223-.607 1.033-.607 1.276 0 2.795.445 3.97 1.336l2.187-2.896C53.162.815 51.177.187 48.97.187c-3.706 0-5.61 2.188-5.61 4.476 0 5.327 7.534 4.01 7.534 5.307 0 .526-.728.729-1.498.729a6.297 6.297 0 0 1-4.355-1.742l-2.126 3.038c1.437 1.296 3.402 2.147 6.278 2.147M65.405 13.898V3.955h3.605V.39H57.688v3.565h3.625v9.943zM78.676 8.754h-2.673L77.339 4.4l1.337 4.354zm6.217 5.145L79.911.389h-5.144L69.784 13.9h4.638l.486-1.58h4.861l.487 1.58h4.637z"/>
    </g>
</svg>
