<svg width="14" height="22" viewBox="0 0 14 22" fill="none" xmlns="http://www.w3.org/2000/svg">
<path d="M13.4194 11.0403L8.47127 8.03611L10.9658 1.76489C11.0428 1.60111 11.086 1.41656 11.086 1.22222C11.086 0.547556 10.5667 0 9.9227 0C9.63218 0.00488889 9.3895 0.101444 9.19699 0.261556C9.15848 0.293333 9.13515 0.312889 9.11531 0.334889L0.364705 9.01267C0.0975201 9.27789 -0.0343224 9.65922 0.00768055 10.0418C0.0496835 10.4243 0.263198 10.7641 0.580554 10.9584L5.5299 13.9651L3.00622 20.3084C2.79271 20.8413 2.96655 21.4573 3.41925 21.7849C3.61993 21.9291 3.85328 22 4.08196 22C4.37132 22 4.66067 21.8863 4.88469 21.6651L13.6353 12.9849C13.9025 12.7197 14.0343 12.3383 13.9923 11.9558C13.9503 11.5732 13.7368 11.2334 13.4194 11.0403Z" fill="#0286bf"/>
</svg>
