<?xml version="1.0" encoding="utf-8"?>
<!-- Generator: Adobe Illustrator 21.0.2, SVG Export Plug-In . SVG Version: 6.00 Build 0)  -->
<svg version="1.1" id="Layer_1" xmlns="http://www.w3.org/2000/svg" xmlns:xlink="http://www.w3.org/1999/xlink" x="0px" y="0px"
	 viewBox="0 0 20 16" style="enable-background:new 0 0 20 16;" xml:space="preserve">
<style type="text/css">
	.st0{fill:#0286BF;}
</style>
<title>check_1</title>
<path class="st0" d="M15.3,10c0.8-1.1,1.3-2.4,1.3-3.7c0-3.5-2.8-6.3-6.3-6.3S4,2.8,4,6.3c0,0,0,0,0,0c0,0,0,0.1,0,0.1H0v8.7h11.1
	v-2.6c1.1-0.1,2.1-0.6,2.9-1.2l4.7,4.7l1.3-1.3L15.3,10z M1,14.2V8.4h3.4c0.9,2.5,3.1,4.1,5.7,4.2v1.6H1z M11.8,11.8
	c-0.5,0.1-1,0.2-1.5,0.2c-3.1,0-5.7-2.6-5.7-5.7c0-0.2,0-0.3,0-0.5h7.2L11.8,11.8z M13.4,11.1V2.5H6.1c2.1-2.3,5.7-2.5,8-0.4
	C15.3,3.1,16,4.7,16,6.3C16,8.2,15,10.1,13.4,11.1z"/>
</svg>
