<svg width="24.960938" height="24.960938" viewBox="2.519531 -52.441406 24.960938 24.960938" xmlns="http://www.w3.org/2000/svg"><path fill="#7e91ad" d="M13.769531 -43.710938L13.769531 -46.230469L16.230469 -46.230469L16.230469 -43.710938ZM15.000000 -29.941406C17.734375 -29.941406 20.087891 -30.927734 22.060547 -32.900391C24.033203 -34.873047 25.019531 -37.226562 25.019531 -39.960938C25.019531 -42.695312 24.033203 -45.048828 22.060547 -47.021484C20.087891 -48.994141 17.734375 -49.980469 15.000000 -49.980469C12.265625 -49.980469 9.912109 -48.994141 7.939453 -47.021484C5.966797 -45.048828 4.980469 -42.695312 4.980469 -39.960938C4.980469 -37.226562 5.966797 -34.873047 7.939453 -32.900391C9.912109 -30.927734 12.265625 -29.941406 15.000000 -29.941406ZM15.000000 -52.441406C18.437500 -52.441406 21.376953 -51.220703 23.818359 -48.779297C26.259766 -46.337891 27.480469 -43.398438 27.480469 -39.960938C27.480469 -36.523438 26.259766 -33.583984 23.818359 -31.142578C21.376953 -28.701172 18.437500 -27.480469 15.000000 -27.480469C11.562500 -27.480469 8.623047 -28.701172 6.181641 -31.142578C3.740234 -33.583984 2.519531 -36.523438 2.519531 -39.960938C2.519531 -43.398438 3.740234 -46.337891 6.181641 -48.779297C8.623047 -51.220703 11.562500 -52.441406 15.000000 -52.441406ZM13.769531 -33.691406L13.769531 -41.191406L16.230469 -41.191406L16.230469 -33.691406ZM13.769531 -33.691406"></path></svg>
