<svg xmlns="http://www.w3.org/2000/svg" width="13" height="17"><path fill-rule="evenodd" fill="#E6E6E6" d="M9 6.001H3.999V4.432C3.999 3.09 5.121 2 6.5 2 7.879 2 9 3.09 9 4.432v1.569zM6.5 13c-.826 0-1.5-.675-1.5-1.5S5.674 10 6.5 10c.824 0 1.499.675 1.499 1.5S7.324 13 6.5 13zm4.876-7.333h-.813V4.048A4.057 4.057 0 0 0 6.5 0a4.057 4.057 0 0 0-4.063 4.048v1.619h-.813C.732 5.667 0 6.395 0 7.285v8.095C0 16.271.732 17 1.624 17h9.752c.892 0 1.623-.729 1.623-1.62V7.285c0-.89-.731-1.618-1.623-1.618z"/></svg>