<svg xmlns="http://www.w3.org/2000/svg" xmlns:xlink="http://www.w3.org/1999/xlink" width="148" height="149" viewBox="0 0 148 149">
    <defs>
        <path id="a" d="M0 90.737V.88h146.766v89.857z"/>
        <path id="c" d="M0 .503v52.53h146.766V.502z"/>
    </defs>
    <g fill="none" fill-rule="evenodd">
        <g transform="translate(0 57.966)">
            <mask id="b" fill="#fff">
                <use xlink:href="#a"/>
            </mask>
            <path fill="#D1ECFA" d="M134.785 90.737H11.98C5.364 90.737 0 85.373 0 78.757V.88h146.766v77.876c0 6.617-5.364 11.981-11.98 11.981" mask="url(#b)"/>
        </g>
        <path fill="#B2DCF4" d="M146.754 58.844c-.012-3.724-1.88-7.228-4.843-9.486L80.635 2.683a11.98 11.98 0 0 0-14.521 0L4.855 49.343c-2.971 2.264-4.85 5.79-4.85 9.528l146.75-.027z"/>
        <path fill="#0286BF" d="M130.374 23.126c.003.045.015.08.015.126a6.614 6.614 0 0 1-6.616 6.613 6.613 6.613 0 0 1-6.614-6.613c0-.045.012-.081.012-.126h-11.927c0 .045.012.08.012.126a6.611 6.611 0 0 1-6.613 6.613 6.613 6.613 0 0 1-6.614-6.613c0-.045.012-.081.012-.126H80.114c.003.045.015.08.015.126a6.616 6.616 0 0 1-13.23 0c0-.045.012-.081.012-.126H54.984c0 .045.012.08.012.126a6.611 6.611 0 0 1-6.613 6.613 6.614 6.614 0 0 1-6.617-6.613c0-.045.012-.081.015-.126h-11.93c0 .045.012.08.012.126a6.611 6.611 0 0 1-6.613 6.613 6.613 6.613 0 0 1-6.614-6.613c0-.045.012-.081.012-.126H10.61V139.93h125.8V23.126h-6.036z"/>
        <path fill="#FFF" d="M72.678 81.329l-5.032-5.032L87.415 56.53l5.032 5.029z"/>
        <path fill="#FFF" d="M77.706 76.294l-5.032 5.032L61.31 69.96l5.03-5.032z"/>
        <path fill="#1487C9" d="M126.03 73.182L73.24 94.901 20.074 72.808l52.791 43.056z"/>
        <path fill="#D1ECFA" d="M146.763 58.876l.255 76.963c0 9.354-10.24 15.102-18.226 10.228l-55.783-34.053 73.754-53.138zM.093 136.585L.013 58.85l73.008 53.21-53.896 34.209c-7.914 5.769-19.032.114-19.032-9.684"/>
        <g transform="translate(0 95.671)">
            <mask id="d" fill="#fff">
                <use xlink:href="#c"/>
            </mask>
            <path fill="#EEFAFF" d="M0 41.051c0 6.617 5.364 11.981 11.98 11.981h122.805c6.617 0 11.981-5.364 11.981-11.98L77.831 1.684a8.996 8.996 0 0 0-8.914 0L-.001 41.051z" mask="url(#d)"/>
        </g>
    </g>
</svg>
