<svg id="Isolation_Mode" data-name="Isolation Mode" xmlns="http://www.w3.org/2000/svg" viewBox="0 0 22.5 22.5"><title>no-data</title><path fill="#dddddd" d="M12.87,22.5V19.26H16.1V22.5Zm0-19.26V0H16.1V3.24Zm6.4,19.26V19.26H22.5a3.35,3.35,0,0,1-3.24,3.24Zm0-12.87V6.4H22.5V9.63Zm0,6.4V12.87H22.5V16Zm-16,6.47a3.06,3.06,0,0,1-2.3-1A3.16,3.16,0,0,1,0,19.26H3.24ZM9.63,0V3.24H6.47V0Zm9.63,0a3.1,3.1,0,0,1,2.26,1,3.1,3.1,0,0,1,1,2.26H19.26ZM9.63,19.26V22.5H6.47V19.26ZM3.24,0V3.24H0A3.16,3.16,0,0,1,.94,1,3.06,3.06,0,0,1,3.24,0Zm0,12.87V16H0V12.87Zm0-6.47V9.63H0V6.4Z"/></svg>