<?xml version="1.0" encoding="UTF-8" standalone="no"?>
<svg width="512px" height="512px" viewBox="0 0 512 512" version="1.1" xmlns="http://www.w3.org/2000/svg" xmlns:xlink="http://www.w3.org/1999/xlink">
    <!-- Generator: Sketch 44.1 (41455) - http://www.bohemiancoding.com/sketch -->
    <title>Group</title>
    <desc>Created with Sketch.</desc>
    <defs></defs>
    <g id="Page-1" stroke="none" stroke-width="1" fill="none" fill-rule="evenodd">
        <g id="Group" fill-rule="nonzero" fill="#000000">
            <path d="M256,512 C114.848,512 0,397.152 0,256 C0,114.848 114.848,0 256,0 C397.152,0 512,114.848 512,256 C512,397.152 397.152,512 256,512 Z M256,32 C132.48,32 32,132.48 32,256 C32,379.52 132.48,480 256,480 C379.52,480 480,379.52 480,256 C480,132.48 379.52,32 256,32 Z" id="Shape"></path>
            <g id="Group-2" transform="translate(168.000000, 124.000000)">
                <ellipse id="Oval" cx="88.33125" cy="242.11399" rx="21.875" ry="21.8860104"></ellipse>
                <path d="M88.353125,198.341969 C76.278125,198.341969 66.478125,188.558922 66.478125,176.455959 C66.478125,147.303793 92.225,125.15515 117.403125,107.296166 C125.234375,101.737119 133.875,83.3309845 129.040625,68.2296373 C124.271875,53.3252642 105.328125,44.439544 89.753125,44.439544 L89.73125,44.439544 C72.66875,44.439544 51.49375,52.3841658 43.246875,74.6203523 C39.025,85.9573057 26.403125,91.6914404 15.115625,87.5112124 C3.784375,83.3090984 -1.990625,70.7027565 2.23125,59.3658031 C15.465625,23.7134922 49.809375,0.645637306 89.73125,0.645637306 L89.775,0.645637306 C121.384375,0.645637306 159.3375,19.2706321 170.7125,54.835399 C181.7375,89.1964352 164.7625,127.343751 142.7125,142.970363 C113.421875,163.740187 110.25,173.260601 110.25,176.412187 C110.20625,188.558922 100.428125,198.341969 88.353125,198.341969 L88.353125,198.341969 Z" id="Shape"></path>
            </g>
        </g>
    </g>
</svg>